<svg xmlns="http://www.w3.org/2000/svg" viewBox="0 0 109.83 59.4"><defs><style>.cls-1{fill:#98989b;}.cls-2{fill:#333;}.cls-3{fill:#fff;}.cls-4{fill:#eceded;}.cls-5{fill:#5e342d;}.cls-6{fill:#707173;}.cls-7{fill:#414544;}.cls-8{fill:#c6c7c8;}</style></defs><g id="Calque_2" data-name="Calque 2"><g id="Calque_1-2" data-name="Calque 1"><polygon class="cls-1" points="60.9 51.54 0 41.19 56.87 0 109.22 8.89 60.9 51.54"/><path class="cls-2" d="M57.5,33.08c-9.9,0-17.84-2.43-20.15-6.81h0a5.76,5.76,0,0,1,0-5.44C40,15.3,50.14,10,62.58,7.57,78.63,4.46,93.4,7,96.2,13.43a5.82,5.82,0,0,1-.28,5.11c-2.54,5.1-11,9.92-22.14,12.56A71.1,71.1,0,0,1,57.5,33.08ZM75.66,6.78a68.63,68.63,0,0,0-13,1.28c-12.29,2.37-22.29,7.59-24.87,13a5.33,5.33,0,0,0,0,5h0c3.34,6.32,19.77,8.42,35.87,4.58C84.47,28,93,23.21,95.47,18.31a5.33,5.33,0,0,0,.27-4.68C93.84,9.29,85.77,6.78,75.66,6.78Z"/><path class="cls-3" d="M38.51,27.93c3.46,6.56,19.94,8.46,36,4.58,15.2-3.67,24.83-11.31,22.18-17.34S79.46,6.42,63.48,9.57C46.55,12.91,35,21.26,38.51,27.93Z"/><path class="cls-2" d="M58.18,34.77c-9.78,0-17.6-2.39-19.89-6.72h0a5.75,5.75,0,0,1,0-5.42C40.94,17.12,51,11.77,63.43,9.33c16-3.15,30.69-.63,33.49,5.74a5.79,5.79,0,0,1-.28,5.08c-2.53,5.1-11,9.93-22.07,12.61A71.08,71.08,0,0,1,58.18,34.77Zm-19.45-7c3.32,6.28,19.69,8.32,35.72,4.45,10.79-2.6,19.32-7.45,21.74-12.34a5.28,5.28,0,0,0,.27-4.66C93.8,9.21,79,6.76,63.52,9.82c-12.24,2.41-22.2,7.64-24.77,13a5.3,5.3,0,0,0,0,5Z"/><path class="cls-3" d="M38.19,27.34c3.47,6.56,20,8.49,36.06,4.62,15.22-3.66,24.85-11.3,22.2-17.34S79.2,5.85,63.19,9C46.24,12.3,34.66,20.65,38.19,27.34Z"/><path class="cls-2" d="M58,34.21c-9.83,0-17.69-2.41-20-6.76A5.78,5.78,0,0,1,38,22c2.64-5.52,12.75-10.86,25.16-13.29,16-3.13,30.73-.59,33.53,5.78a5.81,5.81,0,0,1-.28,5.09c-2.53,5.1-11,9.93-22.1,12.6A71.18,71.18,0,0,1,58,34.21ZM76.31,7.93a68.08,68.08,0,0,0-13.07,1.3C51,11.63,41,16.86,38.44,22.24a5.29,5.29,0,0,0,0,5c3.33,6.3,19.71,8.36,35.78,4.5C85,29.13,93.52,24.29,96,19.39a5.31,5.31,0,0,0,.27-4.67C94.33,10.42,86.34,7.93,76.31,7.93Z"/><path class="cls-3" d="M37.9,26.77c3.47,6.58,20,8.53,36.1,4.67,15.24-3.65,24.88-11.28,22.23-17.33S79,5.31,62.93,8.43C46,11.73,34.36,20.08,37.9,26.77Z"/><path class="cls-2" d="M57.74,33.67c-9.86,0-17.76-2.42-20.06-6.78h0a5.77,5.77,0,0,1,0-5.43C40.33,15.94,50.46,10.6,62.88,8.18c16-3.12,30.77-.56,33.57,5.83a5.8,5.8,0,0,1-.28,5.1c-2.54,5.1-11,9.92-22.12,12.57A70.83,70.83,0,0,1,57.74,33.67Zm-19.62-7C41.45,33,57.85,35.05,73.94,31.2c10.8-2.59,19.35-7.42,21.78-12.32A5.31,5.31,0,0,0,96,14.21C93.33,8.13,78.52,5.65,63,8.67c-12.27,2.39-22.25,7.62-24.83,13a5.34,5.34,0,0,0,0,5Z"/><path class="cls-4" d="M37.57,26.15c3.48,6.59,20,8.55,36.15,4.71C89,27.23,98.63,19.59,96,13.53S78.68,4.7,62.63,7.81C45.63,11.1,34,19.44,37.57,26.15Z"/><path class="cls-2" d="M57.5,33.08c-9.9,0-17.84-2.43-20.15-6.81h0a5.76,5.76,0,0,1,0-5.44C40,15.3,50.14,10,62.58,7.57,78.63,4.46,93.4,7,96.2,13.43a5.82,5.82,0,0,1-.28,5.11c-2.54,5.1-11,9.92-22.14,12.56A71.1,71.1,0,0,1,57.5,33.08ZM75.66,6.78a68.63,68.63,0,0,0-13,1.28c-12.29,2.37-22.29,7.59-24.87,13a5.33,5.33,0,0,0,0,5h0c3.34,6.32,19.77,8.42,35.87,4.58C84.47,28,93,23.21,95.47,18.31a5.33,5.33,0,0,0,.27-4.68C93.84,9.29,85.77,6.78,75.66,6.78Z"/><path class="cls-3" d="M57.38,21.15c1.13,2.27,6.77,3.05,12.52,1.77s9.28-4,8.26-6.23S71.72,13.62,66,14.8,56.24,18.87,57.38,21.15Z"/><path class="cls-2" d="M64.51,23.78c-3.64,0-6.56-.91-7.36-2.51a2.24,2.24,0,0,1,0-2c1-2,4.39-3.81,8.75-4.71,5.88-1.22,11.35-.33,12.44,2a2.17,2.17,0,0,1-.08,1.95c-.93,1.88-4.2,3.7-8.35,4.62A25.16,25.16,0,0,1,64.51,23.78Zm6.56-9.26a25.18,25.18,0,0,0-5,.53c-4.15.86-7.52,2.64-8.4,4.43a1.69,1.69,0,0,0,0,1.56h0c1.06,2.13,6.66,2.88,12.24,1.63,4-.89,7.15-2.6,8-4.35a1.71,1.71,0,0,0,.07-1.52C77.25,15.34,74.52,14.52,71.07,14.52Z"/><path class="cls-3" d="M69.53,20.63c.09.19.71.24,1.37.09s1.13-.42,1-.62-.7-.24-1.37-.09S69.43,20.43,69.53,20.63Z"/><path class="cls-2" d="M70.14,21.06c-.36,0-.72-.07-.84-.33a.35.35,0,0,1,0-.33c.18-.39,1-.59,1.2-.64s1.41-.28,1.65.24a.35.35,0,0,1,0,.33c-.19.38-1,.58-1.19.63A3.87,3.87,0,0,1,70.14,21.06Zm-.29-.53a2.56,2.56,0,0,0,1-.05,2.21,2.21,0,0,0,.78-.3,3.08,3.08,0,0,0-1,.07A2.54,2.54,0,0,0,69.85,20.53Z"/><path class="cls-3" d="M63.65,21.44c.1.2.73.24,1.41.09s1.15-.42,1-.62-.72-.24-1.4-.09S63.56,21.24,63.65,21.44Z"/><path class="cls-2" d="M64.27,21.87c-.35,0-.72-.07-.84-.32a.4.4,0,0,1,0-.34c.19-.39,1-.59,1.23-.64s1.42-.29,1.68.23a.37.37,0,0,1,0,.34c-.19.39-1,.59-1.22.64A5,5,0,0,1,64.27,21.87ZM64,21.35a2.78,2.78,0,0,0,1-.06,2.48,2.48,0,0,0,.79-.3,2.92,2.92,0,0,0-1,.07A2.22,2.22,0,0,0,64,21.35Z"/><path class="cls-3" d="M60.52,19.65c.09.2.73.24,1.42.1s1.16-.43,1.07-.63-.74-.25-1.43-.1S60.42,19.45,60.52,19.65Z"/><path class="cls-2" d="M61.15,20.08c-.36,0-.73-.07-.86-.32a.37.37,0,0,1,0-.34c.19-.4,1-.59,1.23-.65s1.45-.29,1.7.24a.4.4,0,0,1,0,.34c-.19.39-1,.59-1.24.64A5,5,0,0,1,61.15,20.08Zm-.32-.52a2.72,2.72,0,0,0,1.06-.06,2.32,2.32,0,0,0,.81-.3,3.21,3.21,0,0,0-1.06.06A2.65,2.65,0,0,0,60.83,19.56Z"/><path class="cls-3" d="M63.65,17.11c.1.2.73.25,1.41.1s1.15-.42,1.06-.62-.73-.25-1.41-.1S63.55,16.91,63.65,17.11Z"/><path class="cls-2" d="M64.29,17.54c-.36,0-.73-.06-.86-.32h0a.4.4,0,0,1,0-.34c.19-.39,1-.58,1.23-.64s1.43-.28,1.68.24a.37.37,0,0,1,0,.34c-.18.39-1,.59-1.22.64A5.22,5.22,0,0,1,64.29,17.54ZM64,17a3.17,3.17,0,0,0,1.84-.34,2.82,2.82,0,0,0-1,.05A2.3,2.3,0,0,0,64,17Z"/><path class="cls-3" d="M69.68,16.37c.1.2.72.25,1.38.11s1.13-.42,1-.62-.72-.24-1.38-.1S69.59,16.17,69.68,16.37Z"/><path class="cls-2" d="M70.32,16.81c-.37,0-.74-.07-.86-.33a.4.4,0,0,1,0-.34c.19-.39,1-.58,1.21-.63.52-.11,1.45-.18,1.65.25a.35.35,0,0,1,0,.33c-.19.39-1,.58-1.2.63A3.62,3.62,0,0,1,70.32,16.81ZM70,16.28a2.61,2.61,0,0,0,1-.05,2.31,2.31,0,0,0,.77-.28,2.84,2.84,0,0,0-1,.05A2.27,2.27,0,0,0,70,16.28Z"/><path class="cls-3" d="M71.82,17.07c.08.16.58.2,1.11.09s.91-.34.83-.5-.57-.19-1.1-.08S71.75,16.92,71.82,17.07Z"/><path class="cls-2" d="M72.34,17.47c-.31,0-.63-.06-.74-.28h0a.33.33,0,0,1,0-.32c.16-.33.81-.48,1-.52s1.17-.23,1.38.22a.37.37,0,0,1,0,.31c-.16.33-.8.49-1,.53A3.71,3.71,0,0,1,72.34,17.47Zm-.1-.5a2.32,2.32,0,0,0,.64-.06,2.11,2.11,0,0,0,.48-.15,2.41,2.41,0,0,0-.65.06A2.92,2.92,0,0,0,72.24,17Z"/><path class="cls-3" d="M72,19.39c.08.16.57.2,1.1.08S74,19.13,74,19s-.56-.2-1.1-.08S72,19.24,72,19.39Z"/><path class="cls-2" d="M72.53,19.79c-.3,0-.61-.06-.72-.29h0a.34.34,0,0,1,0-.31c.16-.32.75-.48,1-.53s1.17-.23,1.38.21a.34.34,0,0,1,0,.31c-.15.32-.75.48-1,.53A2.73,2.73,0,0,1,72.53,19.79Zm-.08-.5a2.19,2.19,0,0,0,.63-.06,2,2,0,0,0,.48-.16,3,3,0,0,0-.65.07A2.75,2.75,0,0,0,72.45,19.29Z"/><path class="cls-3" d="M66.79,21.39c.08.16.58.2,1.13.08s.91-.35.84-.51-.58-.19-1.12-.07S66.71,21.23,66.79,21.39Z"/><path class="cls-2" d="M67.3,21.79c-.31,0-.62-.06-.73-.29a.34.34,0,0,1,0-.31c.16-.32.76-.49,1-.54s1.19-.25,1.4.21a.34.34,0,0,1,0,.31c-.17.34-.82.5-1,.54A2.85,2.85,0,0,1,67.3,21.79Zm-.09-.5a2.38,2.38,0,0,0,.65-.06,2,2,0,0,0,.5-.17,3.27,3.27,0,0,0-.67.07A2.65,2.65,0,0,0,67.21,21.29Z"/><path class="cls-3" d="M61.65,20.85c.08.16.6.19,1.15.07s.93-.34.85-.5-.59-.2-1.14-.08S61.57,20.69,61.65,20.85Z"/><path class="cls-2" d="M62.16,21.25c-.31,0-.62-.07-.73-.29h0a.4.4,0,0,1,0-.32c.16-.33.83-.5,1-.55s1.2-.22,1.41.22a.34.34,0,0,1,0,.31c-.16.33-.77.49-1,.55A3.59,3.59,0,0,1,62.16,21.25Zm-.1-.51a2.59,2.59,0,0,0,.68-.06,2,2,0,0,0,.51-.17,3.51,3.51,0,0,0-.69.07A3,3,0,0,0,62.06,20.74Z"/><path class="cls-3" d="M61.64,18.38c.07.16.59.19,1.14.08s.94-.35.86-.51-.59-.2-1.15-.08S61.56,18.21,61.64,18.38Z"/><path class="cls-2" d="M62.16,18.77c-.31,0-.64-.06-.75-.29a.31.31,0,0,1,0-.31c.15-.33.77-.49,1-.54s1.21-.23,1.42.21a.36.36,0,0,1,0,.32c-.16.32-.77.49-1,.54A3.9,3.9,0,0,1,62.16,18.77Zm-.12-.5a2.3,2.3,0,0,0,.69-.06,2.59,2.59,0,0,0,.51-.16,2.75,2.75,0,0,0-.69.06A2.84,2.84,0,0,0,62,18.27Z"/><path class="cls-3" d="M66.77,16.49c.08.16.59.2,1.13.09s.92-.34.84-.5-.58-.2-1.12-.09S66.69,16.33,66.77,16.49Z"/><path class="cls-2" d="M67.29,16.89c-.31,0-.63-.06-.74-.29h0a.36.36,0,0,1,0-.32c.16-.32.77-.48,1-.53s1.18-.23,1.39.22a.36.36,0,0,1,0,.32c-.16.32-.76.48-1,.53A3.74,3.74,0,0,1,67.29,16.89Zm-.11-.5a2.42,2.42,0,0,0,.66-.06,1.81,1.81,0,0,0,.51-.16,3.29,3.29,0,0,0-.68.07A2.06,2.06,0,0,0,67.18,16.39Z"/><path class="cls-3" d="M72.54,18c.09.2.71.24,1.36.1s1.12-.42,1-.61-.71-.25-1.36-.11S72.45,17.84,72.54,18Z"/><path class="cls-2" d="M73.16,18.47c-.36,0-.72-.07-.85-.32h0a.38.38,0,0,1,0-.33c.19-.39,1-.58,1.2-.63.5-.11,1.43-.19,1.63.24a.37.37,0,0,1,0,.34c-.19.38-1,.57-1.19.62A3.72,3.72,0,0,1,73.16,18.47Zm-.3-.52a2.78,2.78,0,0,0,1-.06,2.52,2.52,0,0,0,.77-.28,2.63,2.63,0,0,0-1,.06A2.29,2.29,0,0,0,72.86,18Z"/><path class="cls-3" d="M64.37,19.39c.31.64,2.12.83,4,.41s3.17-1.25,2.87-1.9-2.09-.83-4-.42S64.05,18.74,64.37,19.39Z"/><path class="cls-2" d="M66.43,20.27c-1.09,0-2-.23-2.29-.77a.75.75,0,0,1,0-.67c.31-.64,1.51-1.27,3.07-1.6,1.76-.37,3.85-.3,4.27.57a.77.77,0,0,1,0,.66c-.32.64-1.48,1.25-3,1.59A10,10,0,0,1,66.43,20.27Zm2.74-2.76a8.65,8.65,0,0,0-1.84.21c-1.59.34-2.53.93-2.72,1.33a.24.24,0,0,0,0,.23h0c.23.47,1.88.68,3.75.28,1.57-.34,2.49-.92,2.69-1.32a.24.24,0,0,0,0-.23C70.92,17.74,70.21,17.51,69.17,17.51Z"/><path class="cls-3" d="M66.55,18.76c.1.2.72.24,1.39.1s1.14-.42,1-.62-.72-.24-1.39-.1S66.46,18.56,66.55,18.76Z"/><path class="cls-2" d="M67.18,19.19c-.36,0-.73-.07-.85-.32h0a.37.37,0,0,1,0-.34c.19-.39,1-.58,1.21-.64s1.42-.28,1.67.24a.37.37,0,0,1,0,.34c-.19.39-1,.58-1.2.63A4.12,4.12,0,0,1,67.18,19.19Zm-.31-.52a2.72,2.72,0,0,0,1-.06,2.21,2.21,0,0,0,.79-.29,3,3,0,0,0-1,.06A2.22,2.22,0,0,0,66.87,18.67Z"/><path class="cls-5" d="M30,39.88C30.67,41,33,41.54,35.13,41s3.4-1.86,2.78-3-2.87-1.67-5-1.16S29.4,38.71,30,39.88Z"/><path class="cls-2" d="M33.39,41.48c-1.64,0-3.06-.55-3.57-1.48h0a1.53,1.53,0,0,1-.05-1.41,4.3,4.3,0,0,1,3-2c2.31-.53,4.64,0,5.32,1.3a1.53,1.53,0,0,1,0,1.4,4.28,4.28,0,0,1-3,2A7.57,7.57,0,0,1,33.39,41.48Zm-3.14-1.72c.58,1,2.79,1.51,4.82,1a3.79,3.79,0,0,0,2.64-1.69,1,1,0,0,0,0-1c-.55-1-2.74-1.51-4.77-1a3.86,3.86,0,0,0-2.69,1.7A1,1,0,0,0,30.25,39.76Z"/><polygon class="cls-3" points="39.64 40.96 33.64 43.17 29 37.18 27.54 32.03 28.28 31.16 28.7 30.29 29.54 29.89 31.21 29.39 32.97 29.07 33.77 29.09 34.23 29.78 34.9 31.02 36.74 32.55 36.26 34.39 36.47 35.59 38.03 36.33 40.52 36.65 41.68 37.74 39.64 40.96"/><path class="cls-2" d="M33.55,43.47l-4.78-6.22L27.27,32l.82-1,.42-.9.92-.43,1.71-.52,1.78-.32,1,0,.52.79.66,1.22L37,32.46l-.5,1.94.17,1,1.41.67,2.54.32L42,37.7l-2.19,3.47Zm-4.32-6.4,4.49,5.81,5.76-2.12,1.88-3-1-.9-2.48-.32-1.69-.8L36,34.38l.45-1.74-1.78-1.5L34,29.89l-.37-.55-.68,0-1.71.32-1.64.49-.72.35-.39.79-.68.82Z"/><polygon class="cls-3" points="50.58 32.56 52.89 34.88 46.7 38.58 44.68 39.07 43.22 39.55 41.66 40.68 40.87 41.9 39.32 40.36 38.7 39.48 39.95 38.29 41.1 37.74 40.66 36.9 44.48 36.26 50.58 32.56"/><path class="cls-2" d="M40.91,42.29l-1.77-1.76-.77-1.08,1.48-1.39.91-.43-.48-.92L44.39,36l6.23-3.78,2.67,2.7-6.53,3.89-2,.48-1.4.47-1.49,1.08ZM39,39.51l.49.7,1.31,1.29.69-1,1.62-1.16,1.46-.49,2-.48,5.89-3.52-2-2-6,3.64L41,37.09l.41.76-1.35.65Z"/><polygon class="cls-3" points="39.83 40.92 40.87 41.9 31.76 46.81 29.41 44.48 35.62 41.38 36.41 42.02 39.83 40.92"/><path class="cls-2" d="M31.72,47.12,29,44.41l6.66-3.32.81.65,3.43-1.1L41.29,42Zm-1.89-2.57,2,2,8.65-4.66-.69-.64-3.4,1.1-.77-.62Z"/><polygon class="cls-3" points="36.74 32.55 46.52 30.41 59.89 26.38 62.78 25.2 63.82 25.16 64.92 24.72 66.4 24.52 70.76 23.08 71.22 23.24 67.36 24.9 66.68 25.64 65.11 25.93 63.95 27.05 63.03 27.6 59.79 28.34 53.38 31.54 51.75 31.86 44.48 36.26 38.14 37.34 34.43 34.81 35.38 34.39 36.74 32.55"/><path class="cls-2" d="M38.08,37.61l-4.16-2.84,1.29-.58,1.39-1.86,9.87-2.17,13.35-4,3-1.19,1,0,1.06-.43,1.53-.21,4.41-1.46,1.15.4L67.51,25.1l-.7.77-1.58.29-1.1,1.07-1,.61-3.24.74-6.42,3.21-1.59.3-7.32,4.42Zm-3.14-2.75,3.25,2.22L44.39,36l7.31-4.41,1.6-.3,6.38-3.2,3.26-.75.89-.52L65,25.7l1.56-.29.7-.74,1.7-.73-2.49.82L65,25l-1.12.44-1,0L60,26.61l-13.38,4-9.71,2.14-1.35,1.81Z"/><polygon class="cls-3" points="49.11 30.23 54.28 28.72 55.54 28.5 56.24 28.81 55.75 29.19 49.64 31.26 48.64 31.49 48.39 31 49.11 30.23"/><path class="cls-2" d="M48.51,31.77,48.08,31,49,30l5.24-1.53,1.36-.24,1.15.51-.89.68L49.72,31.5Zm.18-.72.08.15.81-.18L55.63,29l.13-.1-.25-.11-1.18.2-5.09,1.49Z"/><path class="cls-3" d="M57.77,27.66c.06.12.4.14.77.06s.62-.25.56-.36-.4-.15-.77-.06S57.71,27.54,57.77,27.66Z"/><path class="cls-2" d="M58.13,28a.61.61,0,0,1-.58-.24h0a.37.37,0,0,1,0-.29c.12-.25.51-.37.73-.42s.88-.18,1,.19a.3.3,0,0,1,0,.29c-.11.25-.5.37-.72.42A2,2,0,0,1,58.13,28Z"/><path class="cls-3" d="M61.86,26.3c.07.15.4.21.73.14s.54-.26.46-.41-.4-.21-.73-.13S61.78,26.15,61.86,26.3Z"/><path class="cls-2" d="M62.3,26.72a.71.71,0,0,1-.67-.31.43.43,0,0,1,0-.35.87.87,0,0,1,.64-.4c.39-.09.86,0,1,.26a.39.39,0,0,1,0,.35.88.88,0,0,1-.63.41A1.86,1.86,0,0,1,62.3,26.72Zm-.12-.51a1,1,0,0,0,.56-.09,1.18,1.18,0,0,0-.36,0Z"/><path class="cls-3" d="M36.86,35.23c.47.88,2.65,1.17,4.85.66s3.57-1.63,3.12-2.5-2.61-1.18-4.81-.68S36.38,34.34,36.86,35.23Z"/><path class="cls-2" d="M39.58,36.39c-1.43,0-2.58-.37-2.94-1a1,1,0,0,1,0-.94c.37-.81,1.65-1.55,3.35-1.94,2.33-.52,4.56-.17,5.08.81a1,1,0,0,1,0,.94c-.36.79-1.62,1.53-3.29,1.92A9.39,9.39,0,0,1,39.58,36.39Zm2.52-3.68a9.46,9.46,0,0,0-2,.24c-1.73.39-2.76,1.12-3,1.66a.52.52,0,0,0,0,.5h0c.36.68,2.33,1.06,4.57.54,1.7-.4,2.7-1.12,3-1.65a.55.55,0,0,0,0-.5C44.36,33,43.4,32.71,42.1,32.71Z"/><path class="cls-3" d="M39.27,34.56c.16.29,1,.36,1.82.17s1.42-.59,1.27-.88-1-.36-1.82-.17S39.12,34.27,39.27,34.56Z"/><path class="cls-2" d="M40.17,35.09a1.26,1.26,0,0,1-1.12-.41h0a.47.47,0,0,1,0-.43,2.21,2.21,0,0,1,1.43-.81c.84-.19,1.85-.18,2.1.3a.48.48,0,0,1,0,.42,2.13,2.13,0,0,1-1.44.81A4.11,4.11,0,0,1,40.17,35.09Zm-.67-.63a2.33,2.33,0,0,0,1.54,0c.77-.18,1.08-.47,1.09-.54a2.37,2.37,0,0,0-1.54,0A1.82,1.82,0,0,0,39.5,34.46Z"/><path class="cls-3" d="M46.18,33.55c.09.17.5.22.92.13s.68-.31.6-.48-.5-.23-.92-.13S46.1,33.38,46.18,33.55Z"/><path class="cls-2" d="M46.7,34a.81.81,0,0,1-.74-.3h0a.39.39,0,0,1,0-.35,1.07,1.07,0,0,1,.77-.48c.45-.11,1-.07,1.19.25a.41.41,0,0,1,0,.36,1.07,1.07,0,0,1-.77.48A2.22,2.22,0,0,1,46.7,34Zm-.22-.52a1.2,1.2,0,0,0,.56,0,.91.91,0,0,0,.36-.14,1.36,1.36,0,0,0-.56,0A1.33,1.33,0,0,0,46.48,33.45Z"/><polygon class="cls-3" points="16.99 44.16 12.17 44.52 10.9 42.88 15.33 41.98 16.99 44.16"/><path class="cls-2" d="M12.06,44.78l-1.6-2.07,5-1,2,2.67ZM11.35,43l.94,1.22L16.51,44l-1.28-1.69Z"/><polygon class="cls-3" points="14.24 39.52 14.08 38.12 25.36 31.1 32.11 30.8 33.83 33.42 32.71 34.37 32.29 35.51 32.67 36.75 33.4 37.27 35.62 41.38 29.41 44.48 16.44 43.36 15.33 41.98 10.9 42.88 10.19 40.8 14.24 39.52"/><path class="cls-2" d="M29.46,44.73,16.31,43.6l-1.08-1.34-4.49.9-.87-2.52,4.1-1.3L13.81,38l11.48-7.14h.06l6.9-.3,1.9,2.92-1.23,1.05-.37,1,.33,1.08.73.56L36,41.49Zm-12.89-1.6,12.79,1.09,5.92-2.94L33.2,37.44l-.75-.53L32,35.51l.47-1.28,1-.86L32,31.06l-6.54.28-11.1,6.91.17,1.44-4,1.27.56,1.63,4.36-.88Z"/><polygon class="cls-3" points="31.76 46.81 17.79 45.18 16.44 43.36 29.41 44.48 31.76 46.81"/><path class="cls-2" d="M32.45,47.14,17.66,45.41l-1.75-2.34,13.61,1.17Zm-14.52-2.2,13.14,1.54L29.3,44.72,17,43.66Z"/><polygon class="cls-3" points="40.75 30.27 41.37 31.16 37.61 31.18 37.05 30.4 40.75 30.27"/><path class="cls-2" d="M37.49,31.43l-.91-1.26,4.3-.16,1,1.4Zm0-.8.21.3H40.9l-.28-.4Z"/><polygon class="cls-3" points="26.55 27.43 27.58 29.34 29.4 29.64 33.76 28.9 33.45 27.22 26.55 27.43"/><path class="cls-2" d="M29.4,29.9l-2-.34L26.13,27.2,33.65,27l.4,2.14Zm-1.66-.79,1.66.28,4.07-.69-.23-1.23-6.28.2Z"/><polygon class="cls-3" points="37.61 31.18 36.66 31.04 33.76 28.9 33 27.31 34.7 27.09 37.05 30.4 37.61 31.18"/><path class="cls-2" d="M38.16,31.51l-1.64-.27-3-2.23-.91-1.9,2.2-.29Zm-1.4-.7.31,0-2.48-3.5-1.22.17L34,28.74Z"/><path class="cls-3" d="M40.75,30.27l-3.7.13-2-1.29-.91-1.69-.69-.2-1.09.16-3,.45-2.77-.4.94-.77L29,25.57l2-.43,2.46-.38,1.45-.31.86-.6.92-.2s0,.34,0,.35a7.75,7.75,0,0,0,2.54,5.08Z"/><path class="cls-2" d="M37,30.65l-2.13-1.37L34,27.63l-.54-.16-4.11.61L26,27.6l1.38-1.13,1.61-1.15,2-.42,2.47-.39,1.39-.29.91-.62,1.19-.25,0,.28S37,24,37,24a7.53,7.53,0,0,0,2.44,4.88h0c.12.08.44.34,1.5,1.18l.52.42Zm-1.75-1.72,1.88,1.22,3-.11-.93-.74,0,0A8,8,0,0,1,36.47,24V24l-.59.12-.9.61L33.51,25,31,25.39l-1.94.41-1.47,1.07-.49.4,2.18.31L33.46,27l.85.24Z"/><path class="cls-2" d="M30.36,26.94c-.31,0-.65-.06-.77-.3a.37.37,0,0,1,0-.34c.15-.34.76-.5,1-.55.44-.1,1.23-.15,1.44.23a.4.4,0,0,1,0,.34c-.16.33-.76.49-1,.55A3.76,3.76,0,0,1,30.36,26.94Zm-.21-.52a2,2,0,0,0,.78,0,2.24,2.24,0,0,0,.55-.19,2.47,2.47,0,0,0-.78,0A2.24,2.24,0,0,0,30.15,26.42Z"/><polygon class="cls-3" points="61.37 47.19 63.26 46.69 78.33 33.86 78.03 33.23 75.19 32.83 73.64 33.85 72.26 34.19 60.43 43.77 60.55 44.27 57.87 46.72 61.37 47.19"/><path class="cls-2" d="M61.38,47.44l-4.07-.54,3-2.72-.12-.5L72.2,34l1.34-.33,1.59-1L78.2,33l.44.92-15.32,13Zm-3-.89,2.92.38,1.79-.46L78,33.79l-.16-.33-2.62-.37-1.54,1-1.32.33L60.71,43.87l.11.48Z"/><polygon class="cls-3" points="50.29 49.42 55.1 46.12 41.93 44.42 37.51 47.82 50.29 49.42"/><path class="cls-2" d="M50.35,49.68,36.87,48l5-3.83L55.78,46Zm-12.21-2,12.09,1.52,4.19-2.88L42,44.68Z"/><polygon class="cls-3" points="56.61 47.97 53.29 49.83 50.32 49.44 55.22 46.09 56.61 47.97"/><path class="cls-2" d="M53.34,50.08l-3.7-.48,5.64-3.85L57,48.05ZM51,49.28l2.24.29,3-1.68-1.08-1.46Z"/><path class="cls-6" d="M81.64,32a.49.49,0,0,0,0-.12c-.15-.56-.9-1-1-1.58l.23-.57c2-1,4.26-1.85,6.11-2.9a54,54,0,0,0,5.25-3.26l5-4.32.57.06L83.16,32.13"/><path class="cls-2" d="M83.33,32.32,83,31.94l9.23-8.07a56.57,56.57,0,0,1-5.13,3.18c-1.23.7-2.66,1.33-4,1.95-.67.3-1.35.61-2,.92l-.17.4a1.75,1.75,0,0,0,.45.68,2.34,2.34,0,0,1,.52.81.65.65,0,0,1,0,.2h-.5v0a1.7,1.7,0,0,0-.42-.63,2,2,0,0,1-.57-1v-.06l.29-.72.09,0c.68-.33,1.39-.65,2.1-1,1.36-.62,2.77-1.25,4-1.93a59.9,59.9,0,0,0,5.23-3.25L97.2,19l1.22.15Z"/><polygon class="cls-7" points="61.7 59.4 0.61 48.99 0 41.19 61.1 51.6 61.7 59.4"/><path class="cls-8" d="M.48,41.71,60.69,52l.53,6.9L1,48.62.48,41.71M0,41.19.61,49,61.71,59.4l-.61-7.8L0,41.19Z"/><polygon class="cls-7" points="61.7 59.4 109.83 16.69 109.22 8.89 61.1 51.6 61.7 59.4"/><path class="cls-8" d="M108.86,9.8l.52,6.7-47.31,42-.52-6.7,47.31-42m.36-.91L61.1,51.6l.61,7.8,48.12-42.71-.61-7.8Z"/><path class="cls-2" d="M56.87,0,0,41.19,60.9,51.54,109.22,8.89ZM99.4,16.68l-7.63,6.89-2.88,2.06-2.16,1.08-1.71,1-2.18.84-2.43,1.15-.23.57c.08.62.83,1,1,1.58.08.29-.24.75-.35,1.07L65.23,46.51l-12.4,3.32L10.08,42.2,7.93,39.36l19.58-14,1.22-.54c1.11-.5,3.28-.42,4.62-.77,3.32-.85,3.19-2.87,4.08-4.33,2.92-4.76,10.84-8.41,19-10.59A82.49,82.49,0,0,1,83.77,6.87l17.66,2.19,1.74,2.79L100.69,14Z"/><path class="cls-8" d="M57,.46l51.27,8.7L60.77,51.07,1.1,40.93,57,.46M56.87,0,0,41.19,60.9,51.54,109.22,8.89,56.87,0Z"/></g></g></svg>