<svg xmlns="http://www.w3.org/2000/svg" viewBox="0 0 19.24 70.63"><defs><style>.cls-1{fill:#eeeeec;}.cls-2{fill:#87888a;}.cls-3{fill:#c7c9b8;}.cls-4{fill:#707173;}</style></defs><g id="Calque_2" data-name="Calque 2"><g id="Calque_1-2" data-name="Calque 1"><polygon class="cls-1" points="10.79 64.99 8.6 70.25 0.25 69.5 0.25 0.25 8.6 0.25 10.79 64.99"/><path class="cls-2" d="M8.76,70.52,0,69.73V0H8.84V.24L11,65l0,0ZM.5,69.28l7.94.7,2.1-5L8.36.5H.5Z"/><polygon class="cls-3" points="18.99 65.73 8.6 70.25 8.6 0.25 18.99 0.25 18.99 65.73"/><path class="cls-4" d="M8.35,70.63V0H19.24V65.9ZM8.85.5V69.87l9.89-4.3V.5Z"/><path d="M15.33,57.83c0,3-.81,5.46-1.82,5.46s-1.81-2.45-1.81-5.46.81-5.46,1.81-5.46S15.33,54.81,15.33,57.83Z"/><rect x="12.99" y="10.95" width="1.05" height="48"/><polygon points="12.35 10.95 13.52 4.88 14.68 10.95 12.35 10.95"/><rect x="15.99" y="16.8" width="2.01" height="6.06"/><path d="M11.24,28c0,1.67-.45,3-1,3s-1-1.36-1-3,.45-3,1-3S11.24,26.3,11.24,28Z"/><path d="M13.09,46.4c-.12-.35-.34-.93-.61-1.64a67.39,67.39,0,0,1-2.4-6.9,36.84,36.84,0,0,1-.37-6.57v-.58h1v.58a36.18,36.18,0,0,0,.35,6.37,70.23,70.23,0,0,0,2.35,6.73c.27.72.5,1.31.62,1.65Z"/><path d="M14.08,38.79l-1-.3c.08-.25.35-1,.72-1.91a70.38,70.38,0,0,0,2.35-6.76,33.47,33.47,0,0,0,.33-6.12v-.83h1.05v.83A34.16,34.16,0,0,1,17.17,30,67.14,67.14,0,0,1,14.76,37C14.43,37.83,14.14,38.58,14.08,38.79Z"/></g></g></svg>