<svg xmlns="http://www.w3.org/2000/svg" viewBox="0 0 125.32 63.94"><defs><style>.cls-1{fill:#e4e4db;}.cls-2{fill:#dbdbce;}.cls-3{fill:#ecece6;}.cls-4{fill:#f9f9f6;}.cls-5{fill:#5c5c5c;}.cls-6{fill:#555753;}.cls-7{fill:#969ba8;}.cls-8{fill:#f4f4f1;}.cls-9{fill:#d3d3d7;}.cls-10{fill:#898a87;}</style></defs><g id="Calque_2" data-name="Calque 2"><g id="Calque_1-2" data-name="Calque 1"><polygon class="cls-1" points="83.29 62.79 7.93 49.3 7.93 30.54 83.29 44.03 83.29 62.79"/><polygon class="cls-2" points="83.29 62.79 124.42 27.58 124.42 8.82 83.29 44.03 83.29 62.79"/><polygon class="cls-3" points="7.93 30.54 54.33 0.92 124.42 8.82 83.29 44.03 7.93 30.54"/><polygon class="cls-4" points="84.18 62.79 82.39 62.79 82.39 44.78 7.77 31.42 8.08 29.66 84.18 43.28 84.18 62.79"/><rect class="cls-4" x="76.78" y="25.53" width="54.15" height="1.79" transform="translate(7.77 73.89) rotate(-40.56)"/><path class="cls-5" d="M83.55,63.74,7,50v-20L54.11,0l.32,0,70.89,8V28ZM8.82,48.55,83,61.84l40.5-34.67V9.62l-69-7.77L8.82,31Z"/><polygon class="cls-6" points="78.45 52.27 13.4 40.54 13.4 34.87 78.45 46 78.45 52.27"/><path class="cls-6" d="M79.34,53.34,12.5,41.29V33.82L79.34,45.25ZM14.29,39.79,77.55,51.21V46.76L14.29,35.93Z"/><polygon class="cls-2" points="77.59 45.85 21.81 36.31 2.17 46.66 64.69 58.65 77.59 45.85"/><path class="cls-7" d="M22,37.24l53.78,9.2L64.39,57.68,4.84,46.27l17.11-9m-.14-.93L2.17,46.67l62.52,12,12.9-12.79L21.81,36.31Z"/><polygon class="cls-8" points="65.7 63.4 0.45 51.21 0.45 45.85 65.7 57.51 65.7 63.4"/><path class="cls-7" d="M66.15,63.94,0,51.58V45.32L66.15,57.14ZM.89,50.84l64.36,12v-5L.89,46.39Z"/><polygon class="cls-8" points="69.34 57.23 76.42 58.24 76.42 55.53 69.34 54.66 69.34 57.23"/><path class="cls-7" d="M76.65,58.5l-7.53-1.07v-3l7.53.92ZM69.57,57l6.63,1V55.73l-6.63-.82Z"/><path class="cls-9" d="M46,49.44c9,0,16.81-2.29,20.11-5.54L25.81,37a4.9,4.9,0,0,0-1.59,3.39C24.22,45.39,34,49.44,46,49.44Z"/><path class="cls-10" d="M26.14,38,64,44.44c-3.77,2.5-10.65,4.11-18,4.11-12.5,0-20.91-4.22-20.91-8.16a3.79,3.79,0,0,1,1-2.43m-.33-1a4.9,4.9,0,0,0-1.59,3.39c0,5,9.76,9,21.8,9,9,0,16.81-2.29,20.11-5.54L25.81,37Z"/></g></g></svg>