<svg xmlns="http://www.w3.org/2000/svg" viewBox="0 0 137.06 527.77"><defs><style>.cls-1{fill:#103a1e;}.cls-2{fill:#00823a;}.cls-3{fill:#104d29;}.cls-4{fill:#959594;}.cls-5{fill:#6b6b6a;}.cls-6{fill:#466e4e;}.cls-7{fill:#2a2a29;}.cls-8{fill:#d0a21d;}</style></defs><g id="Calque_2" data-name="Calque 2"><g id="Calque_1-2" data-name="Calque 1"><path class="cls-1" d="M98.69,11A10.17,10.17,0,0,1,88.52.79c0-.27,0-.52,0-.78H1.6A1.57,1.57,0,0,0,0,1.57v238H7.57a6.54,6.54,0,0,1,0,13.08H0V399.58H7.56a6.54,6.54,0,1,1,0,13.08H0V526.2a1.57,1.57,0,0,0,1.57,1.57H88.48a10.18,10.18,0,0,1,20.36,0H133.9a1.58,1.58,0,0,0,1.57-1.56l0-524.64A1.56,1.56,0,0,0,133.93,0h-25.1c0,.26,0,.52,0,.78A10.18,10.18,0,0,1,98.69,11ZM12.13,513.42a4.22,4.22,0,1,1-4.22,4.22A4.22,4.22,0,0,1,12.13,513.42Zm0-499.8A4.22,4.22,0,1,1,16.38,9.4,4.22,4.22,0,0,1,12.16,13.62Z"/><path class="cls-2" d="M100.26,11A10.18,10.18,0,0,1,90.08.79c0-.27,0-.53,0-.78h-87A1.56,1.56,0,0,0,1.6,1.57l0,238H9.14a6.54,6.54,0,1,1,0,13.08H1.58V399.58H9.13a6.54,6.54,0,0,1,0,13.08H1.57V526.2a1.57,1.57,0,0,0,1.56,1.57H90.05a10.18,10.18,0,0,1,20.36,0h25.05a1.56,1.56,0,0,0,1.57-1.56l0-524.63A1.56,1.56,0,0,0,135.5,0H110.4c0,.26,0,.52,0,.78A10.18,10.18,0,0,1,100.26,11ZM12.13,513.42a4.22,4.22,0,1,1-4.22,4.22A4.22,4.22,0,0,1,12.13,513.42Zm0-499.8A4.22,4.22,0,1,1,16.38,9.4,4.22,4.22,0,0,1,12.16,13.62Z"/><path class="cls-3" d="M10.45,521.5H9.61A1.47,1.47,0,0,1,8.2,520v-.83A4.17,4.17,0,0,0,10.45,521.5Z"/><path class="cls-3" d="M12.16,13.62A4.21,4.21,0,0,0,15,6.27H91.69a10.16,10.16,0,0,0,17.14,0H129a1.48,1.48,0,0,1,1.41,1.53l0,512.18a1.47,1.47,0,0,1-1.41,1.53H108.24a10.14,10.14,0,0,0-16,0H13.82a4.22,4.22,0,1,0-5.62-5.37V412.66h.92a6.54,6.54,0,0,0,0-13.08H8.21V252.69h.92a6.54,6.54,0,1,0,0-13.08H8.22V10.9A4.21,4.21,0,0,0,12.16,13.62Z"/><path class="cls-3" d="M8.23,7.89v-.1A1.5,1.5,0,0,1,9.29,6.32,4.24,4.24,0,0,0,8.23,7.89Z"/><rect class="cls-4" x="28.19" y="461.65" width="90.83" height="41.84"/><polygon class="cls-5" points="28.67 461.65 119.03 461.66 119.02 503.19 28.67 461.65"/><polygon class="cls-6" points="119.02 503.19 119.03 461.66 71.14 482.23 119.02 503.19"/><rect class="cls-7" x="30.7" y="462.81" width="85.81" height="39.53"/><rect class="cls-4" x="107.09" y="450.69" width="11.44" height="8.01"/><polygon class="cls-5" points="107.15 450.69 118.53 450.69 118.53 458.64 107.15 450.69"/><polygon class="cls-6" points="118.53 458.64 118.53 450.69 112.5 454.63 118.53 458.64"/><rect class="cls-7" x="107.41" y="450.91" width="10.81" height="7.57"/><rect class="cls-4" x="120.56" y="430.39" width="5.39" height="8.01"/><polygon class="cls-5" points="120.59 430.39 125.95 430.39 125.95 438.35 120.59 430.39"/><polygon class="cls-6" points="125.95 438.35 125.95 430.39 123.11 434.33 125.95 438.35"/><rect class="cls-7" x="120.71" y="430.61" width="5.09" height="7.57"/><rect class="cls-4" x="120.56" y="420.83" width="5.39" height="8.01"/><polygon class="cls-5" points="120.59 420.83 125.95 420.83 125.95 428.78 120.59 420.83"/><polygon class="cls-6" points="125.95 428.78 125.95 420.83 123.11 424.77 125.95 428.78"/><rect class="cls-7" x="120.71" y="421.05" width="5.09" height="7.57"/><rect class="cls-4" x="120.56" y="472.93" width="5.39" height="8.01"/><polygon class="cls-5" points="120.58 472.93 125.95 472.93 125.95 480.88 120.58 472.93"/><polygon class="cls-6" points="125.95 480.88 125.95 472.93 123.11 476.87 125.95 480.88"/><rect class="cls-7" x="120.7" y="473.15" width="5.09" height="7.57"/><rect class="cls-4" x="120.56" y="463.36" width="5.39" height="8.01"/><polygon class="cls-5" points="120.58 463.37 125.95 463.37 125.95 471.32 120.58 463.37"/><polygon class="cls-6" points="125.95 471.32 125.95 463.37 123.11 467.31 125.95 471.32"/><rect class="cls-7" x="120.7" y="463.59" width="5.09" height="7.57"/><rect class="cls-4" x="120.56" y="411.27" width="5.39" height="8.01"/><polygon class="cls-5" points="120.59 411.26 125.95 411.27 125.95 419.22 120.59 411.26"/><polygon class="cls-6" points="125.95 419.22 125.95 411.27 123.11 415.21 125.95 419.22"/><rect class="cls-7" x="120.71" y="411.49" width="5.09" height="7.57"/><rect class="cls-4" x="28.54" y="446.92" width="9.56" height="8.01"/><polygon class="cls-5" points="28.59 446.92 38.1 446.92 38.1 454.88 28.59 446.92"/><polygon class="cls-6" points="38.1 454.88 38.1 446.92 33.06 450.86 38.1 454.88"/><rect class="cls-7" x="28.8" y="447.14" width="9.03" height="7.57"/><rect class="cls-4" x="106.35" y="333.42" width="11.44" height="8.01"/><polygon class="cls-5" points="106.41 333.42 117.79 333.42 117.79 341.37 106.41 333.42"/><polygon class="cls-6" points="117.79 341.37 117.79 333.42 111.76 337.36 117.79 341.37"/><rect class="cls-7" x="106.66" y="333.64" width="10.81" height="7.57"/><rect class="cls-4" x="68.57" y="71.77" width="11.44" height="8.01"/><polygon class="cls-5" points="68.63 71.77 80.01 71.77 80.01 79.72 68.63 71.77"/><polygon class="cls-6" points="80.01 79.72 80.01 71.77 73.98 75.71 80.01 79.72"/><rect class="cls-7" x="68.89" y="71.99" width="10.81" height="7.57"/><rect class="cls-4" x="28.16" y="391.68" width="16.57" height="8.01"/><polygon class="cls-5" points="28.25 391.68 44.73 391.68 44.73 399.63 28.25 391.68"/><polygon class="cls-6" points="44.73 399.63 44.73 391.68 36 395.62 44.73 399.63"/><rect class="cls-7" x="28.62" y="391.9" width="15.65" height="7.57"/><rect class="cls-4" x="28.17" y="275.91" width="16.57" height="8.01"/><polygon class="cls-5" points="28.26 275.91 44.74 275.91 44.74 283.87 28.26 275.91"/><polygon class="cls-6" points="44.74 283.87 44.74 275.91 36.01 279.85 44.74 283.87"/><rect class="cls-7" x="28.63" y="276.13" width="15.65" height="7.57"/><rect class="cls-4" x="106.36" y="184.85" width="11.44" height="8.01"/><polygon class="cls-5" points="106.42 184.85 117.8 184.85 117.8 192.81 106.42 184.85"/><polygon class="cls-6" points="117.8 192.81 117.8 184.85 111.77 188.79 117.8 192.81"/><rect class="cls-7" x="106.67" y="185.07" width="10.81" height="7.57"/><rect class="cls-4" x="84.83" y="243.12" width="11.44" height="8.01"/><polygon class="cls-5" points="84.89 243.12 96.27 243.12 96.27 251.08 84.89 243.12"/><polygon class="cls-6" points="96.27 251.08 96.27 243.12 90.24 247.06 96.27 251.08"/><rect class="cls-7" x="85.15" y="243.34" width="10.81" height="7.57"/><rect class="cls-4" x="28.18" y="127.34" width="10.79" height="8.01"/><polygon class="cls-5" points="28.24 127.34 38.97 127.34 38.97 135.3 28.24 127.34"/><polygon class="cls-6" points="38.97 135.3 38.97 127.34 33.28 131.29 38.97 135.3"/><rect class="cls-7" x="28.48" y="127.57" width="10.19" height="7.57"/><rect class="cls-4" x="16.98" y="461.7" width="8.03" height="19.17"/><polygon class="cls-5" points="17.02 461.7 25.01 461.7 25.01 480.73 17.02 461.7"/><polygon class="cls-6" points="25.01 480.73 25.01 461.7 20.78 471.13 25.01 480.73"/><rect class="cls-7" x="17.2" y="462.23" width="7.58" height="18.11"/><rect class="cls-4" x="17.01" y="23.98" width="8.03" height="19.17"/><polygon class="cls-5" points="17.05 23.98 25.04 23.98 25.04 43.01 17.05 23.98"/><polygon class="cls-6" points="25.04 43.01 25.04 23.98 20.8 33.41 25.04 43.01"/><rect class="cls-7" x="17.23" y="24.51" width="7.58" height="18.11"/><rect class="cls-4" x="16.98" y="424.54" width="8.03" height="19.17"/><polygon class="cls-5" points="17.03 424.54 25.01 424.54 25.01 443.56 17.03 424.54"/><polygon class="cls-6" points="25.01 443.56 25.01 424.54 20.78 433.96 25.01 443.56"/><rect class="cls-7" x="17.21" y="425.07" width="7.58" height="18.11"/><rect class="cls-4" x="109.91" y="254.98" width="8.03" height="19.17"/><polygon class="cls-5" points="109.96 254.98 117.94 254.98 117.94 274.01 109.96 254.98"/><polygon class="cls-6" points="117.94 274.01 117.94 254.98 113.71 264.41 117.94 274.01"/><rect class="cls-7" x="110.14" y="255.51" width="7.58" height="18.11"/><rect class="cls-4" x="96.79" y="254.98" width="8.03" height="19.17"/><polygon class="cls-5" points="96.83 254.98 104.82 254.98 104.81 274 96.83 254.98"/><polygon class="cls-6" points="104.81 274 104.82 254.98 100.58 264.41 104.81 274"/><rect class="cls-7" x="97.01" y="255.51" width="7.58" height="18.11"/><rect class="cls-4" x="83.67" y="254.98" width="8.03" height="19.17"/><polygon class="cls-5" points="83.71 254.98 91.69 254.98 91.69 274 83.71 254.98"/><polygon class="cls-6" points="91.69 274 91.69 254.98 87.46 264.4 91.69 274"/><rect class="cls-7" x="83.89" y="255.51" width="7.58" height="18.11"/><rect class="cls-4" x="41.6" y="242.37" width="5.02" height="19.17"/><polygon class="cls-5" points="41.63 242.38 46.62 242.38 46.62 261.4 41.63 242.38"/><polygon class="cls-6" points="46.62 261.4 46.62 242.38 43.97 251.8 46.62 261.4"/><rect class="cls-7" x="41.74" y="242.9" width="4.74" height="18.11"/><rect class="cls-4" x="16.99" y="344.71" width="8.03" height="19.17"/><polygon class="cls-5" points="17.03 344.71 25.02 344.71 25.02 363.74 17.03 344.71"/><polygon class="cls-6" points="25.02 363.74 25.02 344.71 20.78 354.14 25.02 363.74"/><rect class="cls-7" x="17.21" y="345.24" width="7.58" height="18.11"/><rect class="cls-4" x="17" y="138.77" width="8.03" height="19.17"/><polygon class="cls-5" points="17.05 138.77 25.03 138.77 25.03 157.8 17.05 138.77"/><polygon class="cls-6" points="25.03 157.8 25.03 138.77 20.8 148.2 25.03 157.8"/><rect class="cls-7" x="17.22" y="139.3" width="7.58" height="18.11"/><rect class="cls-4" x="16.99" y="307.55" width="8.03" height="19.17"/><polygon class="cls-5" points="17.04 307.55 25.02 307.55 25.02 326.58 17.04 307.55"/><polygon class="cls-6" points="25.02 326.58 25.02 307.55 20.79 316.97 25.02 326.58"/><rect class="cls-7" x="17.21" y="308.08" width="7.58" height="18.11"/><rect class="cls-4" x="17" y="198.71" width="8.03" height="19.17"/><polygon class="cls-5" points="17.04 198.71 25.03 198.71 25.02 217.73 17.04 198.71"/><polygon class="cls-6" points="25.02 217.73 25.03 198.71 20.8 208.13 25.02 217.73"/><rect class="cls-7" x="17.22" y="199.24" width="7.58" height="18.11"/><rect class="cls-4" x="28.2" y="402.47" width="90.83" height="41.84"/><polygon class="cls-5" points="28.67 402.47 119.03 402.48 119.03 444.01 28.67 402.47"/><polygon class="cls-6" points="119.03 444.01 119.03 402.48 71.14 423.06 119.03 444.01"/><rect class="cls-7" x="30.71" y="403.63" width="85.81" height="39.53"/><rect class="cls-4" x="28.2" y="343.79" width="90.83" height="41.84"/><polygon class="cls-5" points="28.68 343.79 119.03 343.8 119.03 385.33 28.68 343.79"/><polygon class="cls-6" points="119.03 385.33 119.03 343.8 71.15 364.37 119.03 385.33"/><rect class="cls-7" x="30.71" y="344.95" width="85.81" height="39.53"/><rect class="cls-4" x="28.2" y="286.6" width="90.83" height="41.84"/><polygon class="cls-5" points="28.68 286.59 119.04 286.6 119.03 328.14 28.68 286.59"/><polygon class="cls-6" points="119.03 328.14 119.04 286.6 71.15 307.18 119.03 328.14"/><rect class="cls-7" x="30.71" y="287.75" width="85.81" height="39.53"/><rect class="cls-4" x="28.21" y="198.55" width="90.83" height="41.84"/><polygon class="cls-5" points="28.68 198.55 119.04 198.56 119.04 240.09 28.68 198.55"/><polygon class="cls-6" points="119.04 240.09 119.04 198.56 71.16 219.13 119.04 240.09"/><rect class="cls-7" x="30.72" y="199.71" width="85.81" height="39.53"/><rect class="cls-4" x="28.21" y="139.37" width="90.83" height="41.84"/><polygon class="cls-5" points="28.69 139.37 119.05 139.38 119.04 180.91 28.69 139.37"/><polygon class="cls-6" points="119.04 180.91 119.05 139.38 71.16 159.96 119.04 180.91"/><rect class="cls-7" x="30.72" y="140.53" width="85.81" height="39.53"/><rect class="cls-4" x="28.21" y="80.69" width="90.83" height="41.84"/><polygon class="cls-5" points="28.69 80.69 119.05 80.69 119.05 122.23 28.69 80.69"/><polygon class="cls-6" points="119.05 122.23 119.05 80.69 71.16 101.27 119.05 122.23"/><rect class="cls-7" x="30.73" y="81.85" width="85.81" height="39.53"/><rect class="cls-4" x="28.22" y="23.5" width="90.83" height="41.84"/><polygon class="cls-5" points="28.7 23.49 119.05 23.5 119.05 65.04 28.7 23.49"/><polygon class="cls-6" points="119.05 65.04 119.05 23.5 71.17 44.08 119.05 65.04"/><rect class="cls-7" x="30.73" y="24.65" width="85.81" height="39.53"/><rect class="cls-8" x="1.57" y="503.41" width="13.14" height="6.81"/><rect class="cls-8" x="1.57" y="493.64" width="13.14" height="6.81"/><rect class="cls-8" x="1.57" y="483.87" width="13.14" height="6.81"/><rect class="cls-8" x="1.57" y="474.11" width="13.14" height="6.81"/><rect class="cls-8" x="1.57" y="464.34" width="13.14" height="6.81"/><rect class="cls-8" x="1.57" y="454.57" width="13.14" height="6.81"/><rect class="cls-8" x="1.57" y="444.8" width="13.14" height="6.81"/><rect class="cls-8" x="1.57" y="435.04" width="13.14" height="6.81"/><rect class="cls-8" x="1.57" y="425.27" width="13.14" height="6.81"/><rect class="cls-8" x="1.58" y="376.43" width="13.14" height="6.81"/><rect class="cls-8" x="1.58" y="366.66" width="13.14" height="6.81"/><rect class="cls-8" x="1.58" y="356.89" width="13.14" height="6.81"/><rect class="cls-8" x="1.58" y="347.13" width="13.14" height="6.81"/><rect class="cls-8" x="1.58" y="337.36" width="13.14" height="6.81"/><rect class="cls-8" x="1.58" y="327.59" width="13.14" height="6.81"/><rect class="cls-8" x="1.58" y="317.82" width="13.14" height="6.81"/><rect class="cls-8" x="1.58" y="308.06" width="13.14" height="6.81"/><rect class="cls-8" x="1.58" y="298.29" width="13.14" height="6.81"/><rect class="cls-8" x="1.58" y="288.52" width="13.14" height="6.81"/><rect class="cls-8" x="1.58" y="278.75" width="13.14" height="6.81"/><rect class="cls-8" x="1.58" y="268.99" width="13.14" height="6.81"/><rect class="cls-8" x="1.59" y="220.14" width="13.14" height="6.81"/><rect class="cls-8" x="1.59" y="210.38" width="13.14" height="6.81"/><rect class="cls-8" x="1.59" y="200.61" width="13.14" height="6.81"/><rect class="cls-8" x="1.59" y="190.84" width="13.14" height="6.81"/><rect class="cls-8" x="1.59" y="181.07" width="13.14" height="6.82"/><rect class="cls-8" x="1.59" y="171.31" width="13.14" height="6.81"/><rect class="cls-8" x="1.59" y="161.54" width="13.14" height="6.82"/><rect class="cls-8" x="1.59" y="151.77" width="13.14" height="6.81"/><rect class="cls-8" x="1.59" y="142" width="13.14" height="6.82"/><rect class="cls-8" x="1.59" y="132.23" width="13.14" height="6.81"/><rect class="cls-8" x="1.59" y="122.46" width="13.14" height="6.81"/><rect class="cls-8" x="1.59" y="112.7" width="13.14" height="6.81"/><rect class="cls-8" x="1.59" y="102.93" width="13.14" height="6.81"/><rect class="cls-8" x="1.59" y="93.16" width="13.14" height="6.82"/><rect class="cls-8" x="1.59" y="83.39" width="13.14" height="6.81"/><rect class="cls-8" x="1.59" y="73.62" width="13.14" height="6.81"/><rect class="cls-8" x="1.59" y="63.86" width="13.14" height="6.81"/><rect class="cls-8" x="1.59" y="54.09" width="13.14" height="6.82"/><rect class="cls-8" x="1.6" y="44.32" width="13.14" height="6.82"/><rect class="cls-8" x="1.6" y="34.55" width="13.14" height="6.82"/><rect class="cls-8" x="1.6" y="24.78" width="13.14" height="6.82"/><path class="cls-8" d="M125.16,514.83a2,2,0,1,0,2,2A2,2,0,0,0,125.16,514.83Zm0,.54a1.45,1.45,0,1,1-1.45,1.44A1.44,1.44,0,0,1,125.16,515.37Z"/><path class="cls-8" d="M109.5,511a2,2,0,1,0,2,2A2,2,0,0,0,109.5,511Zm0,.53a1.45,1.45,0,1,1-1.45,1.45A1.45,1.45,0,0,1,109.5,511.57Z"/><path class="cls-8" d="M125.94,446.43a2,2,0,1,0,2,2A2,2,0,0,0,125.94,446.43Zm0,.53a1.45,1.45,0,1,1-1.45,1.45A1.45,1.45,0,0,1,125.94,447Z"/><path class="cls-8" d="M87,277.77a2,2,0,1,0,2,2A2,2,0,0,0,87,277.77Zm0,.53a1.45,1.45,0,1,1-1.45,1.45A1.45,1.45,0,0,1,87,278.3Z"/><path class="cls-8" d="M71.54,262.29a2,2,0,1,0,2,2A2,2,0,0,0,71.54,262.29Zm0,.53a1.45,1.45,0,1,1-1.45,1.45A1.44,1.44,0,0,1,71.54,262.82Z"/><path class="cls-8" d="M29.1,262.29a2,2,0,1,0,2,2A2,2,0,0,0,29.1,262.29Zm0,.53a1.45,1.45,0,0,1,1.45,1.45,1.45,1.45,0,0,1-2.9,0A1.45,1.45,0,0,1,29.1,262.82Z"/><path class="cls-8" d="M29.1,252.75a2,2,0,1,0,2,2A2,2,0,0,0,29.1,252.75Zm0,.53a1.45,1.45,0,1,1-1.45,1.45A1.45,1.45,0,0,1,29.1,253.28Z"/><path class="cls-8" d="M18.85,299.06a2,2,0,1,0,2,2A2,2,0,0,0,18.85,299.06Zm0,.53A1.45,1.45,0,1,1,17.4,301,1.45,1.45,0,0,1,18.85,299.59Z"/><path class="cls-8" d="M18.85,289.73a2,2,0,1,0,2,2A2,2,0,0,0,18.85,289.73Zm0,.53a1.45,1.45,0,1,1-1.45,1.45A1.45,1.45,0,0,1,18.85,290.26Z"/><path class="cls-8" d="M18.85,280.4a2,2,0,1,0,2,2A2,2,0,0,0,18.85,280.4Zm0,.54a1.45,1.45,0,1,1-1.45,1.44A1.45,1.45,0,0,1,18.85,280.94Z"/><path class="cls-8" d="M18.85,271.08a2,2,0,1,0,2,2A2,2,0,0,0,18.85,271.08Zm0,.53a1.45,1.45,0,1,1-1.45,1.45A1.45,1.45,0,0,1,18.85,271.61Z"/><path class="cls-8" d="M18.85,221.69a2,2,0,1,0,2,2A2,2,0,0,0,18.85,221.69Zm0,.53a1.45,1.45,0,1,1-1.44,1.45A1.45,1.45,0,0,1,18.85,222.22Z"/><path class="cls-8" d="M101,191.39a2,2,0,1,0,2,2A2,2,0,0,0,101,191.39Zm0,.54a1.46,1.46,0,0,1,1.45,1.45,1.45,1.45,0,1,1-1.45-1.45Z"/><path class="cls-8" d="M93,191.39a2,2,0,1,0,2,2A2,2,0,0,0,93,191.39Zm0,.54a1.45,1.45,0,1,1-1.45,1.45A1.45,1.45,0,0,1,93,191.93Z"/><path class="cls-8" d="M104.72,14.37a2,2,0,1,0,2,2A2,2,0,0,0,104.72,14.37Zm0,.54a1.45,1.45,0,0,1,1.45,1.45,1.45,1.45,0,0,1-2.9,0A1.45,1.45,0,0,1,104.72,14.91Z"/><path class="cls-8" d="M77,7.67a2,2,0,1,0,2,2A2,2,0,0,0,77,7.67Zm0,.53A1.45,1.45,0,1,1,75.6,9.65,1.45,1.45,0,0,1,77,8.2Z"/><path class="cls-8" d="M22.62,16.15a2,2,0,1,0,2,2A2,2,0,0,0,22.62,16.15Zm0,.53a1.45,1.45,0,1,1-1.44,1.45A1.45,1.45,0,0,1,22.62,16.68Z"/><path class="cls-8" d="M22.62,10.16a2,2,0,1,0,2,2A2,2,0,0,0,22.62,10.16Zm0,.53a1.45,1.45,0,1,1-1.44,1.45A1.45,1.45,0,0,1,22.62,10.69Z"/><path class="cls-8" d="M85,191.39a2,2,0,1,0,2,2A2,2,0,0,0,85,191.39Zm0,.54a1.45,1.45,0,1,1-1.45,1.45A1.44,1.44,0,0,1,85,191.93Z"/><path class="cls-8" d="M93.38,124.2a1.86,1.86,0,1,0,2,1.86A1.92,1.92,0,0,0,93.38,124.2Zm0,.5a1.36,1.36,0,1,1-1.45,1.35A1.4,1.4,0,0,1,93.38,124.7Z"/><path class="cls-8" d="M100,72.7a1.86,1.86,0,1,0,2,1.85A1.92,1.92,0,0,0,100,72.7Zm0,.5a1.36,1.36,0,1,1-1.44,1.35A1.4,1.4,0,0,1,100,73.2Z"/><path class="cls-8" d="M37.15,66.56a1.86,1.86,0,1,0,2,1.86A1.92,1.92,0,0,0,37.15,66.56Zm0,.5a1.36,1.36,0,1,1-1.45,1.36A1.41,1.41,0,0,1,37.15,67.06Z"/><path class="cls-8" d="M77,191.39a2,2,0,1,0,2,2A2,2,0,0,0,77,191.39Zm0,.54a1.45,1.45,0,1,1-1.45,1.44A1.45,1.45,0,0,1,77,191.93Z"/><path class="cls-8" d="M19.29,191.85a2,2,0,1,0,2,2A2,2,0,0,0,19.29,191.85Zm0,.54a1.45,1.45,0,1,1-1.44,1.44A1.44,1.44,0,0,1,19.29,192.39Z"/><path class="cls-8" d="M19.29,182.24a2,2,0,1,0,2,2A2,2,0,0,0,19.29,182.24Zm0,.54a1.45,1.45,0,1,1-1.44,1.44A1.43,1.43,0,0,1,19.29,182.78Z"/><path class="cls-8" d="M19.29,172.44a2,2,0,1,0,2,2A2,2,0,0,0,19.29,172.44Zm0,.53a1.45,1.45,0,0,1,1.45,1.45,1.45,1.45,0,0,1-2.9,0A1.46,1.46,0,0,1,19.29,173Z"/><path class="cls-8" d="M19.12,100.53a2,2,0,1,0,2,2A2,2,0,0,0,19.12,100.53Zm0,.53a1.45,1.45,0,1,1-1.44,1.45A1.45,1.45,0,0,1,19.12,101.06Z"/><path class="cls-8" d="M19.12,93.09a2,2,0,1,0,2,2A2,2,0,0,0,19.12,93.09Zm0,.53a1.45,1.45,0,0,1,1.45,1.45,1.45,1.45,0,1,1-1.45-1.45Z"/><path class="cls-8" d="M65.23,73.61a2,2,0,1,0,2,2A2,2,0,0,0,65.23,73.61Zm0,.53a1.45,1.45,0,1,1-1.45,1.45A1.44,1.44,0,0,1,65.23,74.14Z"/><path class="cls-8" d="M19.12,85.65a2,2,0,1,0,2,2A2,2,0,0,0,19.12,85.65Zm0,.53a1.45,1.45,0,1,1-1.44,1.45A1.45,1.45,0,0,1,19.12,86.18Z"/><path class="cls-8" d="M19.13,78.21a2,2,0,1,0,2,2A2,2,0,0,0,19.13,78.21Zm0,.53a1.45,1.45,0,1,1-1.45,1.45A1.45,1.45,0,0,1,19.13,78.74Z"/><path class="cls-8" d="M93.19,505.59a2,2,0,1,0,2,2A2,2,0,0,0,93.19,505.59Zm0,.54a1.45,1.45,0,1,1-1.44,1.44A1.44,1.44,0,0,1,93.19,506.13Z"/><path class="cls-8" d="M44.4,505.59a2,2,0,1,0,2,2A2,2,0,0,0,44.4,505.59Zm0,.53A1.45,1.45,0,1,1,43,507.57,1.44,1.44,0,0,1,44.41,506.12Z"/><path class="cls-8" d="M49.35,515.42a2,2,0,1,0,2,2A2,2,0,0,0,49.35,515.42Zm0,.53a1.45,1.45,0,1,1,0,2.89,1.45,1.45,0,0,1,0-2.89Z"/><path class="cls-8" d="M20.47,489.76a2,2,0,1,0,2,2A2,2,0,0,0,20.47,489.76Zm0,.53A1.45,1.45,0,1,1,19,491.74,1.45,1.45,0,0,1,20.47,490.29Z"/><path class="cls-8" d="M25.1,338.26a2,2,0,1,0,2,2A2,2,0,0,0,25.1,338.26Zm0,.53a1.45,1.45,0,1,1-1.45,1.45A1.45,1.45,0,0,1,25.1,338.79Z"/><path class="cls-8" d="M23.53,418.89a2,2,0,1,0,2,2A2,2,0,0,0,23.53,418.89Zm0,.53a1.45,1.45,0,1,1-1.44,1.45A1.45,1.45,0,0,1,23.53,419.42Z"/><path class="cls-8" d="M98.54,337.34a2,2,0,1,0,2,2A2,2,0,0,0,98.54,337.34Zm0,.54a1.45,1.45,0,1,1-1.45,1.45A1.45,1.45,0,0,1,98.54,337.88Z"/><path class="cls-8" d="M124.45,317.21a2,2,0,1,0,2,2A2,2,0,0,0,124.45,317.21Zm0,.53a1.45,1.45,0,1,1-1.44,1.45A1.45,1.45,0,0,1,124.45,317.74Z"/><path class="cls-8" d="M124.45,309.22a2,2,0,1,0,2,2A2,2,0,0,0,124.45,309.22Zm0,.53A1.45,1.45,0,1,1,123,311.2,1.45,1.45,0,0,1,124.45,309.75Z"/><path class="cls-8" d="M124.46,301.23a2,2,0,1,0,2,2A2,2,0,0,0,124.46,301.23Zm0,.54a1.45,1.45,0,1,1-1.45,1.44A1.45,1.45,0,0,1,124.46,301.77Z"/><path class="cls-8" d="M124.46,149.46a2,2,0,1,0,2,2A2,2,0,0,0,124.46,149.46Zm0,.53a1.45,1.45,0,1,1-1.44,1.45A1.45,1.45,0,0,1,124.46,150Z"/><path class="cls-8" d="M124.46,145a2,2,0,1,0,2,2A2,2,0,0,0,124.46,145Zm0,.53a1.45,1.45,0,0,1,1.45,1.45,1.45,1.45,0,1,1-1.45-1.45Z"/><path class="cls-8" d="M124.46,140.47a2,2,0,1,0,2,2A2,2,0,0,0,124.46,140.47Zm0,.54a1.44,1.44,0,0,1,1.45,1.44,1.45,1.45,0,1,1-2.89,0A1.43,1.43,0,0,1,124.46,141Z"/><path class="cls-8" d="M124.46,228.34a2,2,0,1,0,2,2A2,2,0,0,0,124.46,228.34Zm0,.54a1.45,1.45,0,1,1-1.45,1.44A1.44,1.44,0,0,1,124.46,228.88Z"/><path class="cls-8" d="M23.53,412.21a2,2,0,1,0,2,2A2,2,0,0,0,23.53,412.21Zm0,.53a1.45,1.45,0,1,1-1.44,1.45A1.45,1.45,0,0,1,23.53,412.74Z"/><path class="cls-8" d="M23.53,405.53a2,2,0,1,0,2,2A2,2,0,0,0,23.53,405.53Zm0,.53a1.45,1.45,0,1,1-1.44,1.45A1.45,1.45,0,0,1,23.53,406.06Z"/><path class="cls-8" d="M23.53,398.84a2,2,0,1,0,2,2A2,2,0,0,0,23.53,398.84Zm0,.54a1.45,1.45,0,1,1-1.44,1.45A1.45,1.45,0,0,1,23.53,399.38Z"/><path class="cls-8" d="M74.87,451.34a2,2,0,1,0,2,2A2,2,0,0,0,74.87,451.34Zm0,.54a1.45,1.45,0,1,1-1.45,1.45A1.45,1.45,0,0,1,74.87,451.88Z"/><path class="cls-8" d="M102.27,445.78a2,2,0,1,0,2,2A2,2,0,0,0,102.27,445.78Zm0,.53a1.45,1.45,0,1,1-1.45,1.45A1.44,1.44,0,0,1,102.27,446.31Z"/><path class="cls-8" d="M95.58,445.78a2,2,0,1,0,2,2A2,2,0,0,0,95.58,445.78Zm0,.53a1.45,1.45,0,1,1-1.44,1.45A1.45,1.45,0,0,1,95.58,446.31Z"/><path class="cls-8" d="M88.9,445.78a2,2,0,1,0,2,2A2,2,0,0,0,88.9,445.78Zm0,.53a1.45,1.45,0,1,1-1.45,1.45A1.45,1.45,0,0,1,88.9,446.31Z"/><path class="cls-8" d="M46.22,454a2,2,0,1,0,2,2A2,2,0,0,0,46.22,454Zm0,.54A1.45,1.45,0,1,1,44.77,456,1.45,1.45,0,0,1,46.22,454.58Z"/><path class="cls-8" d="M101.42,388.66a2,2,0,1,0,2,2A2,2,0,0,0,101.42,388.66Zm0,.53a1.45,1.45,0,1,1-1.45,1.45A1.45,1.45,0,0,1,101.42,389.19Z"/><path class="cls-8" d="M82.29,396.27a2,2,0,1,0,2,2A2,2,0,0,0,82.29,396.27Zm0,.53a1.45,1.45,0,1,1-1.44,1.45A1.45,1.45,0,0,1,82.29,396.8Z"/><path class="cls-8" d="M75.85,396.27a2,2,0,1,0,2,2A2,2,0,0,0,75.85,396.27Zm0,.53a1.45,1.45,0,1,1-1.44,1.45A1.45,1.45,0,0,1,75.85,396.8Z"/><path class="cls-8" d="M69.41,396.27a2,2,0,1,0,2,2A2,2,0,0,0,69.41,396.27Zm0,.53A1.45,1.45,0,1,1,68,398.25,1.45,1.45,0,0,1,69.41,396.8Z"/><path class="cls-8" d="M42,331.81a2,2,0,1,0,2,2A2,2,0,0,0,42,331.81Zm0,.54a1.45,1.45,0,1,1-1.45,1.44A1.45,1.45,0,0,1,42,332.35Z"/><polygon class="cls-8" points="123.88 515.56 112.78 507.86 94.65 508.08 94.64 507.08 113.08 506.86 124.45 514.74 123.88 515.56"/><polygon class="cls-8" points="51.18 516.62 50.65 515.77 56.24 512.32 107.52 512.52 107.52 513.52 56.52 513.32 51.18 516.62"/><polygon class="cls-8" points="42.41 508.07 24.75 507.45 20 493.88 20.94 493.55 25.47 506.48 42.44 507.07 42.41 508.07"/><polygon class="cls-8" points="98.5 454 76.85 453.83 76.86 452.83 98.1 452.99 101.92 449.38 102.61 450.1 98.5 454"/><polygon class="cls-8" points="47.42 455.1 46.59 454.55 51.39 447.33 86.92 447.26 86.92 448.26 51.93 448.33 47.42 455.1"/><polygon class="cls-8" points="127.42 447.3 126.55 446.81 128.44 443.42 127.86 390.77 103.41 391.14 103.39 390.14 128.85 389.76 129.44 443.67 127.42 447.3"/><polygon class="cls-8" points="103.76 458.68 50.31 458.08 52.7 452.6 72.89 452.83 72.88 453.83 53.35 453.6 51.83 457.1 103.77 457.68 103.76 458.68"/><path class="cls-8" d="M124.4,130.93a2,2,0,1,0,2,2A2,2,0,0,0,124.4,130.93Zm0,.54a1.43,1.43,0,0,1,1.44,1.44,1.45,1.45,0,1,1-1.44-1.44Z"/><path class="cls-8" d="M74.89,129.58a2,2,0,1,0,2,2A2,2,0,0,0,74.89,129.58Zm0,.54a1.45,1.45,0,1,1-1.45,1.45A1.45,1.45,0,0,1,74.89,130.12Z"/><path class="cls-8" d="M102.29,124.07a2,2,0,1,0,2,2A2,2,0,0,0,102.29,124.07Zm0,.54a1.45,1.45,0,1,1-1.45,1.45A1.44,1.44,0,0,1,102.29,124.61Z"/><path class="cls-8" d="M97.83,124.07a2,2,0,1,0,2,2A2,2,0,0,0,97.83,124.07Zm0,.54a1.45,1.45,0,1,1-1.45,1.45A1.45,1.45,0,0,1,97.83,124.61Z"/><path class="cls-8" d="M88.92,124.07a2,2,0,1,0,2,2A2,2,0,0,0,88.92,124.07Zm0,.54a1.45,1.45,0,1,1-1.45,1.44A1.44,1.44,0,0,1,88.92,124.61Z"/><path class="cls-8" d="M46.24,132.28a2,2,0,1,0,2,2A2,2,0,0,0,46.24,132.28Zm0,.53a1.45,1.45,0,1,1-1.45,1.45A1.46,1.46,0,0,1,46.24,132.81Z"/><polygon class="cls-8" points="98.52 132.24 76.87 132.06 76.87 131.06 98.12 131.23 101.94 127.62 102.63 128.34 98.52 132.24"/><polygon class="cls-8" points="47.44 133.34 46.61 132.79 51.41 125.57 86.94 125.5 86.94 126.5 51.94 126.57 47.44 133.34"/><polygon class="cls-8" points="125.88 131.8 125 131.31 126.89 127.92 126.32 75.28 101.86 75.64 101.85 74.64 127.3 74.26 127.89 128.17 125.88 131.8"/><polygon class="cls-8" points="103.78 136.91 50.33 136.32 52.72 130.84 72.91 131.06 72.9 132.06 53.37 131.84 51.85 135.34 103.79 135.91 103.78 136.91"/><polygon class="cls-8" points="123.56 411.54 123.37 398.96 84.27 398.75 84.28 397.75 124.36 397.96 124.56 411.53 123.56 411.54"/><polygon class="cls-8" points="24.03 398.85 23.03 398.84 23.06 393.21 28.39 386.24 67.31 386.84 75.45 395.98 74.71 396.64 66.85 387.83 28.88 387.25 24.06 393.55 24.03 398.85"/><polygon class="cls-8" points="68.05 397.21 63.52 391.54 36.23 390.95 36.25 389.95 64 390.55 68.83 396.58 68.05 397.21"/><polygon class="cls-8" points="21.8 420.44 17.98 415.81 17.98 415.63 17.59 364.34 25.43 365.02 25.23 385.92 20.9 392.8 21.11 369.96 22.11 369.97 21.93 389.28 24.23 385.62 24.42 365.93 18.6 365.43 18.98 415.45 22.58 419.8 21.8 420.44"/><polygon class="cls-8" points="97.18 338.53 91.09 334.05 43.47 334.3 43.47 333.3 91.42 333.04 97.77 337.72 97.18 338.53"/><polygon class="cls-8" points="22.89 339.75 19.33 336.54 19.5 326.31 20.5 326.32 20.33 336.11 23.56 339.01 22.89 339.75"/><polygon class="cls-8" points="71.1 281.19 70.94 280.93 60.9 264.41 30.55 264.77 30.54 263.77 61.45 263.4 71.64 280.15 85.53 279.25 85.6 280.25 71.1 281.19"/><polygon class="cls-8" points="69.93 262.8 60.86 243.36 50.16 243.36 49.84 260.13 60.21 260.43 58.15 251.58 54.38 251.58 53.78 256.73 52.78 256.61 53.49 250.58 58.94 250.58 61.48 261.46 48.83 261.1 49.17 242.36 61.49 242.36 70.83 262.38 69.93 262.8"/><rect class="cls-8" x="123.96" y="231.77" width="1" height="69.99"/><polygon class="cls-8" points="115.93 254.37 114.93 254.37 114.93 247.96 97.33 247.63 97.35 246.63 115.93 246.97 115.93 254.37"/><polygon class="cls-8" points="66.33 280.53 59.09 268.28 25.45 269.4 20.62 273.44 19.98 272.68 25.07 268.41 25.24 268.4 59.65 267.26 67.19 280.02 66.33 280.53"/><polygon class="cls-8" points="21.07 102.02 20.48 101.22 25.92 97.21 25.93 78.18 68.51 78.37 68.51 79.37 26.93 79.18 26.92 97.71 21.07 102.02"/><polygon class="cls-8" points="21.01 94.48 20.54 93.59 23.4 92.1 23.4 75.44 63.51 75.1 63.52 76.1 24.4 76.43 24.4 92.7 21.01 94.48"/><polygon class="cls-8" points="20.04 78.92 19.13 78.52 23.96 67.65 35.18 67.92 35.16 68.92 24.6 68.67 20.04 78.92"/><polygon class="cls-8" points="100.58 191.68 94.74 183.18 27.11 183.37 20.49 175.94 21.23 175.28 27.56 182.37 95.26 182.17 101.41 191.11 100.58 191.68"/><polygon class="cls-8" points="91.84 192.18 87.87 186.51 25.87 186.51 21.1 184.69 21.45 183.76 26.05 185.51 88.4 185.51 92.66 191.61 91.84 192.18"/><polygon class="cls-8" points="21.08 194.2 20.4 193.47 25.37 188.84 82.08 188.45 84.78 191.36 84.04 192.04 81.64 189.45 25.77 189.84 21.08 194.2"/><polygon class="cls-8" points="21.97 199.13 21.32 198.38 27.73 192.76 75.05 192.88 75.05 193.88 28.11 193.76 21.97 199.13"/><polygon class="cls-8" points="98.48 22.42 98.28 22.42 28.46 21.95 24.29 18.52 24.92 17.75 28.82 20.96 98.09 21.42 103.18 16.77 103.86 17.51 98.48 22.42"/><polygon class="cls-8" points="29.56 19.66 23.68 12.46 24.46 11.83 30.03 18.65 70.22 18.2 75.59 10.82 76.4 11.41 70.73 19.2 29.56 19.66"/></g></g></svg>