<svg xmlns="http://www.w3.org/2000/svg" xmlns:xlink="http://www.w3.org/1999/xlink" viewBox="0 0 23.21 35.64"><defs><style>.cls-1{fill:url(#GradientFill_144);}.cls-2{fill:url(#GradientFill_144-2);}.cls-3{fill:url(#GradientFill_144-3);}.cls-4{fill:url(#GradientFill_144-4);}.cls-5{fill:url(#GradientFill_144-5);}.cls-6{fill:url(#GradientFill_144-6);}.cls-7{fill:url(#GradientFill_144-7);}.cls-8{fill:url(#GradientFill_144-8);}.cls-9{fill:url(#GradientFill_144-9);}.cls-10{fill:url(#GradientFill_144-10);}.cls-11{fill:url(#GradientFill_144-11);}.cls-12{fill:url(#GradientFill_144-12);}.cls-13{fill:url(#GradientFill_144-13);}.cls-14{fill:url(#GradientFill_144-14);}.cls-15{fill:url(#GradientFill_148);}.cls-16{fill:url(#GradientFill_148-2);}.cls-17{fill:#555753;}.cls-18{fill:#8f9299;}.cls-19{fill:#c8ff79;}.cls-20{fill:#095136;}.cls-21{fill:#e1eae7;}.cls-22{fill:#fff;}.cls-23{fill:#fdfa8f;}.cls-24{fill:#e2e4e3;}.cls-25{fill:#919297;}</style><linearGradient id="GradientFill_144" x1="1.06" y1="1.93" x2="1.06" y2="1.04" gradientUnits="userSpaceOnUse"><stop offset="0" stop-color="#fff"/><stop offset="0.19" stop-color="#fcc700"/><stop offset="0.24" stop-color="#ffdc6b"/><stop offset="0.29" stop-color="#fff1c9"/><stop offset="0.57" stop-color="#fffcf3"/><stop offset="0.65" stop-color="#ffcb00"/><stop offset="0.73" stop-color="#eeb500"/><stop offset="1" stop-color="#c6811f"/></linearGradient><linearGradient id="GradientFill_144-2" x1="1.06" y1="4.49" x2="1.06" y2="3.6" xlink:href="#GradientFill_144"/><linearGradient id="GradientFill_144-3" x1="1.06" y1="7.06" x2="1.06" y2="6.16" xlink:href="#GradientFill_144"/><linearGradient id="GradientFill_144-4" x1="1.06" y1="9.62" x2="1.06" y2="8.73" xlink:href="#GradientFill_144"/><linearGradient id="GradientFill_144-5" x1="1.06" y1="12.18" x2="1.06" y2="11.29" xlink:href="#GradientFill_144"/><linearGradient id="GradientFill_144-6" x1="1.06" y1="14.74" x2="1.06" y2="13.85" xlink:href="#GradientFill_144"/><linearGradient id="GradientFill_144-7" x1="1.06" y1="17.3" x2="1.06" y2="16.41" xlink:href="#GradientFill_144"/><linearGradient id="GradientFill_144-8" x1="1.06" y1="19.86" x2="1.06" y2="18.97" xlink:href="#GradientFill_144"/><linearGradient id="GradientFill_144-9" x1="1.06" y1="22.43" x2="1.06" y2="21.53" xlink:href="#GradientFill_144"/><linearGradient id="GradientFill_144-10" x1="1.06" y1="24.99" x2="1.06" y2="24.1" xlink:href="#GradientFill_144"/><linearGradient id="GradientFill_144-11" x1="1.06" y1="27.55" x2="1.06" y2="26.66" xlink:href="#GradientFill_144"/><linearGradient id="GradientFill_144-12" x1="1.06" y1="30.11" x2="1.06" y2="29.22" xlink:href="#GradientFill_144"/><linearGradient id="GradientFill_144-13" x1="1.06" y1="32.67" x2="1.06" y2="31.78" xlink:href="#GradientFill_144"/><linearGradient id="GradientFill_144-14" x1="1.06" y1="35.24" x2="1.06" y2="34.34" xlink:href="#GradientFill_144"/><linearGradient id="GradientFill_148" x1="2.55" y1="35.64" x2="2.55" y2="33.94" gradientUnits="userSpaceOnUse"><stop offset="0" stop-color="#256636"/><stop offset="1" stop-color="#d8dcd7"/></linearGradient><linearGradient id="GradientFill_148-2" x1="1.8" y1="17.82" x2="23.21" y2="17.82" xlink:href="#GradientFill_148"/></defs><g id="Calque_2" data-name="Calque 2"><g id="Calque_1-2" data-name="Calque 1"><rect class="cls-1" y="1.04" width="2.13" height="0.89"/><rect class="cls-2" y="3.6" width="2.13" height="0.89"/><rect class="cls-3" y="6.16" width="2.13" height="0.89"/><rect class="cls-4" y="8.73" width="2.13" height="0.89"/><rect class="cls-5" y="11.29" width="2.13" height="0.89"/><rect class="cls-6" y="13.85" width="2.13" height="0.89"/><rect class="cls-7" y="16.41" width="2.13" height="0.89"/><rect class="cls-8" y="18.97" width="2.13" height="0.89"/><rect class="cls-9" y="21.53" width="2.13" height="0.89"/><rect class="cls-10" y="24.1" width="2.13" height="0.89"/><rect class="cls-11" y="26.66" width="2.13" height="0.89"/><rect class="cls-12" y="29.22" width="2.13" height="0.89"/><rect class="cls-13" y="31.78" width="2.13" height="0.89"/><rect class="cls-14" y="34.34" width="2.13" height="0.89"/><rect class="cls-15" x="1.82" y="33.94" width="1.45" height="1.69"/><polygon class="cls-16" points="23.2 33.34 1.8 35.64 1.8 0 23.2 0 23.2 33.34"/><polygon class="cls-17" points="23.21 33.34 3.28 35.64 3.28 0 23.21 0 23.21 33.34"/><polygon class="cls-18" points="20.91 29.2 6.34 30.89 6.34 4.6 20.91 4.6 20.91 29.2"/><path class="cls-19" d="M23.09,8.42c-.33,0-.6-.47-.6-1.07s.27-1.08.6-1.09l.12,0V0H3.28V6.7h.09c.38,0,.68.5.68,1.13S3.75,9,3.37,9H3.28V35.64l19.93-2.3v-25Z"/><path class="cls-20" d="M22.49,7.35c0-.59.27-1.08.6-1.09V.2L3.41.22V6.69c.36,0,.64.52.64,1.13S3.77,8.94,3.41,9V35.41l19.68-2.26V8.42C22.76,8.43,22.49,8,22.49,7.35Z"/><path class="cls-21" d="M19.85,3.38,7,3.53c-.89,0-1.62,1.25-1.62,2.76V29.1c0,1.51.73,2.67,1.62,2.57l4.89-.5.2-1.23L15,29.65l.2,1.17,4.63-.48c.82-.08,1.47-1.32,1.47-2.75V6C21.32,4.53,20.67,3.37,19.85,3.38Z"/><path class="cls-22" d="M4.44,1.29c0,.36-.17.65-.39.65s-.38-.28-.38-.64.17-.65.38-.65S4.44.94,4.44,1.29Z"/><path class="cls-22" d="M22.87,1.22c0,.33-.16.61-.35.61s-.34-.27-.34-.61.16-.61.34-.61S22.87.88,22.87,1.22Z"/><path class="cls-22" d="M22.87,32.16c0,.34-.16.63-.35.65s-.34-.24-.34-.57.16-.63.34-.65S22.87,31.82,22.87,32.16Z"/><path class="cls-22" d="M4.44,34.21c0,.36-.17.67-.39.69s-.38-.25-.38-.61.17-.66.38-.69S4.44,33.85,4.44,34.21Z"/><path class="cls-23" d="M19.77,32.2c0,.2-.09.37-.21.38s-.2-.14-.2-.34.09-.36.2-.38S19.77,32,19.77,32.2Z"/><path class="cls-23" d="M20,32.89c0,.2-.09.37-.2.38s-.21-.14-.21-.34.09-.36.21-.37S20,32.69,20,32.89Z"/><path class="cls-23" d="M20.24,32.15c0,.19-.09.36-.2.38s-.2-.14-.2-.34.09-.37.2-.38S20.24,32,20.24,32.15Z"/><path class="cls-23" d="M20.44,32.84c0,.19-.09.36-.2.38s-.2-.14-.2-.34.09-.36.2-.38S20.44,32.64,20.44,32.84Z"/><path class="cls-23" d="M20.71,32.09c0,.2-.09.37-.2.38s-.2-.13-.2-.33.09-.37.2-.38S20.71,31.9,20.71,32.09Z"/><path class="cls-23" d="M20.91,32.78c0,.2-.09.37-.2.38s-.2-.13-.2-.33.09-.37.2-.38S20.91,32.59,20.91,32.78Z"/><path class="cls-23" d="M21.18,32c0,.2-.09.37-.2.38s-.2-.14-.2-.33.09-.37.2-.38S21.18,31.85,21.18,32Z"/><path class="cls-23" d="M21.38,32.73c0,.2-.09.37-.2.38S21,33,21,32.78s.09-.37.2-.38S21.38,32.53,21.38,32.73Z"/><path class="cls-23" d="M22.72,27c-.11,0-.2-.14-.2-.33s.09-.36.2-.37.2.14.2.33S22.83,27,22.72,27Z"/><path class="cls-23" d="M22.33,27.36c-.11,0-.2-.14-.2-.33s.09-.36.2-.37.19.14.19.33S22.44,27.35,22.33,27.36Z"/><path class="cls-23" d="M22.72,27.8c-.11,0-.2-.14-.2-.33s.09-.37.2-.38.2.14.2.34S22.83,27.79,22.72,27.8Z"/><path class="cls-23" d="M22.33,28.19c-.11,0-.2-.14-.2-.33s.09-.37.2-.38.19.14.19.34S22.44,28.18,22.33,28.19Z"/><path class="cls-23" d="M22.72,28.63c-.11,0-.2-.14-.2-.34s.09-.36.2-.37.2.14.2.34S22.83,28.62,22.72,28.63Z"/><path class="cls-23" d="M22.33,29c-.11,0-.2-.14-.2-.33s.09-.37.2-.38.19.14.19.34S22.44,29,22.33,29Z"/><path class="cls-23" d="M22.72,29.46c-.11,0-.2-.14-.2-.34s.09-.36.2-.37.2.14.2.33S22.83,29.44,22.72,29.46Z"/><path class="cls-23" d="M22.33,29.85c-.11,0-.2-.14-.2-.33s.09-.37.2-.38.19.14.19.34S22.44,29.84,22.33,29.85Z"/><path class="cls-23" d="M4.28,27.42c-.13,0-.23-.15-.23-.36s.1-.39.23-.4.22.15.22.36S4.4,27.4,4.28,27.42Z"/><path class="cls-23" d="M3.83,27.83c-.13,0-.23-.15-.23-.35s.1-.39.23-.4.22.15.22.36S4,27.82,3.83,27.83Z"/><path class="cls-23" d="M4.28,28.3c-.13,0-.23-.15-.23-.36s.1-.38.23-.4.22.15.22.36S4.4,28.28,4.28,28.3Z"/><path class="cls-23" d="M3.83,28.71c-.13,0-.23-.14-.23-.35s.1-.39.23-.4.22.15.22.36S4,28.7,3.83,28.71Z"/><path class="cls-23" d="M4.28,27.42c-.13,0-.23-.15-.23-.36s.1-.39.23-.4.22.15.22.36S4.4,27.4,4.28,27.42Z"/><path class="cls-23" d="M3.83,27.83c-.13,0-.23-.15-.23-.35s.1-.39.23-.4.22.15.22.36S4,27.82,3.83,27.83Z"/><path class="cls-23" d="M4.28,26.53c-.13,0-.23-.14-.23-.35s.1-.39.23-.4.22.15.22.36S4.4,26.52,4.28,26.53Z"/><path class="cls-23" d="M3.83,27c-.13,0-.23-.15-.23-.36s.1-.38.23-.39.22.15.22.35S4,26.94,3.83,27Z"/><path class="cls-23" d="M4.28,25.65c-.13,0-.23-.15-.23-.35s.1-.39.23-.4.22.15.22.36S4.4,25.64,4.28,25.65Z"/><path class="cls-23" d="M3.83,26.07c-.13,0-.23-.15-.23-.36s.1-.38.23-.39.22.15.22.35S4,26.06,3.83,26.07Z"/><path class="cls-23" d="M4.28,24.77c-.13,0-.23-.15-.23-.35s.1-.39.23-.4.22.15.22.36S4.4,24.76,4.28,24.77Z"/><path class="cls-23" d="M3.83,25.19c-.13,0-.23-.15-.23-.36s.1-.39.23-.4.22.15.22.36S4,25.18,3.83,25.19Z"/><path class="cls-23" d="M4.28,23.89c-.13,0-.23-.15-.23-.36s.1-.38.23-.39.22.15.22.36S4.4,23.88,4.28,23.89Z"/><path class="cls-23" d="M3.83,24.3c-.13,0-.23-.15-.23-.36s.1-.38.23-.39.22.15.22.36S4,24.29,3.83,24.3Z"/><path class="cls-23" d="M4.28,23c-.13,0-.23-.15-.23-.36s.1-.38.23-.39.22.15.22.36S4.4,23,4.28,23Z"/><path class="cls-23" d="M3.83,23.42c-.13,0-.23-.15-.23-.36s.1-.38.23-.39.22.15.22.36S4,23.41,3.83,23.42Z"/><path class="cls-23" d="M4.28,22.13c-.13,0-.23-.15-.23-.36s.1-.38.23-.39.22.15.22.36S4.4,22.12,4.28,22.13Z"/><path class="cls-23" d="M3.83,22.54c-.13,0-.23-.15-.23-.36s.1-.38.23-.39.22.15.22.36S4,22.53,3.83,22.54Z"/><path class="cls-23" d="M4.28,21.25c-.13,0-.23-.15-.23-.36s.1-.38.23-.39.22.15.22.36S4.4,21.24,4.28,21.25Z"/><path class="cls-23" d="M3.83,21.66c-.13,0-.23-.15-.23-.36s.1-.39.23-.39.22.15.22.36S4,21.65,3.83,21.66Z"/><path class="cls-23" d="M4.28,20.37c-.13,0-.23-.15-.23-.36s.1-.38.23-.39.22.15.22.36S4.4,20.36,4.28,20.37Z"/><path class="cls-23" d="M3.83,20.78c-.13,0-.23-.16-.23-.37s.1-.38.23-.39.22.16.22.37S4,20.77,3.83,20.78Z"/><path class="cls-23" d="M4.28,19.49c-.13,0-.23-.15-.23-.36s.1-.38.23-.39.22.15.22.36S4.4,19.48,4.28,19.49Z"/><path class="cls-23" d="M3.83,19.89c-.13,0-.23-.15-.23-.36s.1-.38.23-.39.22.16.22.36S4,19.89,3.83,19.89Z"/><path class="cls-23" d="M15.11,1.61c0-.2.09-.36.21-.36s.21.16.21.36-.1.36-.21.36S15.11,1.81,15.11,1.61Z"/><path class="cls-23" d="M14.9.89c0-.2.1-.36.21-.36s.21.16.21.36-.09.36-.21.36S14.9,1.09,14.9.89Z"/><path class="cls-23" d="M15.6,1.61c0-.2.09-.36.21-.36s.2.16.2.36-.09.36-.2.36S15.6,1.81,15.6,1.61Z"/><path class="cls-23" d="M15.39.89c0-.2.09-.37.21-.37s.21.17.21.37-.1.36-.21.36S15.39,1.09,15.39.89Z"/><path class="cls-23" d="M17,1.6c0-.2.09-.36.2-.36s.21.16.21.36-.1.36-.21.36S17,1.8,17,1.6Z"/><path class="cls-23" d="M16.81.88c0-.2.09-.36.21-.36s.2.16.2.36-.09.36-.2.36S16.81,1.08,16.81.88Z"/><path class="cls-23" d="M17.5,1.6c0-.2.09-.36.2-.36s.21.16.21.36-.1.36-.21.36S17.5,1.8,17.5,1.6Z"/><path class="cls-23" d="M17.29.88c0-.2.09-.36.21-.36s.2.16.2.36-.09.36-.2.36S17.29,1.08,17.29.88Z"/><path class="cls-23" d="M18.89,1.59c0-.2.1-.36.21-.36s.2.16.2.36-.09.36-.2.36S18.89,1.79,18.89,1.59Z"/><path class="cls-23" d="M18.69.88c0-.2.09-.36.2-.36s.21.16.21.36-.09.35-.21.35S18.69,1.07,18.69.88Z"/><path class="cls-23" d="M19.37,1.59c0-.2.09-.36.2-.36s.2.16.2.36-.09.35-.2.36S19.37,1.79,19.37,1.59Z"/><path class="cls-23" d="M19.17.88c0-.2.09-.36.2-.36s.2.16.2.35-.09.36-.2.36S19.17,1.07,19.17.88Z"/><path class="cls-23" d="M4.28,29.18c-.13,0-.23-.15-.23-.36s.1-.38.23-.39.22.14.22.35S4.4,29.16,4.28,29.18Z"/><path class="cls-23" d="M3.83,29.6c-.13,0-.23-.15-.23-.36s.1-.39.23-.4.22.15.22.36S4,29.58,3.83,29.6Z"/><path class="cls-23" d="M4.28,30.06c-.13,0-.23-.15-.23-.36s.1-.38.23-.39.22.14.22.35S4.4,30.05,4.28,30.06Z"/><path class="cls-23" d="M3.83,30.48c-.13,0-.23-.15-.23-.36s.1-.38.23-.4.22.15.22.36S4,30.46,3.83,30.48Z"/><path class="cls-24" d="M19,29.27,8.3,30.43a1.33,1.33,0,0,1-1.5-1.35V6.82A1.5,1.5,0,0,1,8.3,5.31H19a1.38,1.38,0,0,1,1.34,1.42v21A1.58,1.58,0,0,1,19,29.27Z"/><path class="cls-25" d="M19,5.81a.88.88,0,0,1,.84.92v21a1.08,1.08,0,0,1-.89,1.07L8.24,29.93h-.1a.81.81,0,0,1-.84-.85V6.82a1,1,0,0,1,1-1H19m0-.5H8.3A1.5,1.5,0,0,0,6.8,6.82V29.08a1.32,1.32,0,0,0,1.34,1.35H8.3L19,29.27a1.58,1.58,0,0,0,1.34-1.57v-21A1.38,1.38,0,0,0,19,5.31Z"/><polygon class="cls-22" points="18.43 6 13.35 6.11 7.86 29.74 13.13 29.22 18.43 6"/><path d="M12.11,20.46c0,.45-.12.68-.38.68H10.44c-.25,0-.37-.23-.37-.68V14.38c0-.45.12-.68.37-.68h1.29c.26,0,.38.23.38.68v1.74h-.62V14.66h-.8v5.52h.8V18.62h.62Z"/><path d="M14.88,17.75c0,.46-.12.69-.38.69h-1v2.7h-.63V13.7H14.5c.26,0,.38.23.38.68Zm-.62-.26V14.66H13.5v2.83Z"/><path d="M17.68,20.46c0,.45-.13.68-.39.68H16c-.25,0-.37-.23-.37-.68V13.7h.62v6.48h.83V13.7h.63Z"/></g></g></svg>